<svg width="179" height="179" viewBox="0 0 179 179" fill="none" xmlns="http://www.w3.org/2000/svg">
<path d="M143.682 74.5514C138.633 48.9336 116.134 29.7018 89.1052 29.7018C67.6457 29.7018 49.0079 41.8795 39.7261 59.7005C17.3755 62.0767 0 81.0115 0 103.956C0 128.534 19.9744 148.509 44.5526 148.509H141.083C161.577 148.509 178.21 131.876 178.21 111.382C178.21 91.7784 162.988 75.888 143.682 74.5514ZM141.083 133.658H44.5526C28.1424 133.658 14.8509 120.366 14.8509 103.956C14.8509 88.734 26.2118 76.0365 41.2854 74.4771L49.2306 73.6603L52.9434 66.6062C59.9975 53.0176 73.8088 44.5526 89.1052 44.5526C108.56 44.5526 125.341 58.3639 129.128 77.4473L131.356 88.5855L142.717 89.4023C154.301 90.1448 163.36 99.8721 163.36 111.382C163.36 123.634 153.335 133.658 141.083 133.658ZM59.4035 96.5307H78.3383V118.807H99.8721V96.5307H118.807L89.1052 66.8289L59.4035 96.5307Z" fill="black"/>
</svg>
